<svg id="visual" viewBox="0 0 900 600" width="900" height="600" xmlns="http://www.w3.org/2000/svg" xmlns:xlink="http://www.w3.org/1999/xlink" version="1.1"><path d="M0 103L12.5 94C25 85 50 67 75 66C100 65 125 81 150 93C175 105 200 113 225 104C250 95 275 69 300 66C325 63 350 83 375 91C400 99 425 95 450 88C475 81 500 71 525 71C550 71 575 81 600 81C625 81 650 71 675 65C700 59 725 57 750 57C775 57 800 59 825 60C850 61 875 61 887.5 61L900 61L900 0L887.5 0C875 0 850 0 825 0C800 0 775 0 750 0C725 0 700 0 675 0C650 0 625 0 600 0C575 0 550 0 525 0C500 0 475 0 450 0C425 0 400 0 375 0C350 0 325 0 300 0C275 0 250 0 225 0C200 0 175 0 150 0C125 0 100 0 75 0C50 0 25 0 12.5 0L0 0Z" fill="#36b796"></path><path d="M0 175L12.5 163C25 151 50 127 75 124C100 121 125 139 150 150C175 161 200 165 225 160C250 155 275 141 300 136C325 131 350 135 375 140C400 145 425 151 450 148C475 145 500 133 525 132C550 131 575 141 600 147C625 153 650 155 675 148C700 141 725 125 750 115C775 105 800 101 825 99C850 97 875 97 887.5 97L900 97L900 59L887.5 59C875 59 850 59 825 58C800 57 775 55 750 55C725 55 700 57 675 63C650 69 625 79 600 79C575 79 550 69 525 69C500 69 475 79 450 86C425 93 400 97 375 89C350 81 325 61 300 64C275 67 250 93 225 102C200 111 175 103 150 91C125 79 100 63 75 64C50 65 25 83 12.5 92L0 101Z" fill="#21a584"></path><path d="M0 253L12.5 248C25 243 50 233 75 243C100 253 125 283 150 292C175 301 200 289 225 286C250 283 275 289 300 279C325 269 350 243 375 234C400 225 425 233 450 231C475 229 500 217 525 212C550 207 575 209 600 212C625 215 650 219 675 224C700 229 725 235 750 237C775 239 800 237 825 237C850 237 875 239 887.5 240L900 241L900 95L887.5 95C875 95 850 95 825 97C800 99 775 103 750 113C725 123 700 139 675 146C650 153 625 151 600 145C575 139 550 129 525 130C500 131 475 143 450 146C425 149 400 143 375 138C350 133 325 129 300 134C275 139 250 153 225 158C200 163 175 159 150 148C125 137 100 119 75 122C50 125 25 149 12.5 161L0 173Z" fill="#009473"></path><path d="M0 397L12.5 402C25 407 50 417 75 429C100 441 125 455 150 463C175 471 200 473 225 469C250 465 275 455 300 443C325 431 350 417 375 418C400 419 425 435 450 432C475 429 500 407 525 401C550 395 575 405 600 420C625 435 650 455 675 444C700 433 725 391 750 369C775 347 800 345 825 372C850 399 875 455 887.5 483L900 511L900 239L887.5 238C875 237 850 235 825 235C800 235 775 237 750 235C725 233 700 227 675 222C650 217 625 213 600 210C575 207 550 205 525 210C500 215 475 227 450 229C425 231 400 223 375 232C350 241 325 267 300 277C275 287 250 281 225 284C200 287 175 299 150 290C125 281 100 251 75 241C50 231 25 241 12.5 246L0 251Z" fill="#008064"></path><path d="M0 601L12.5 601C25 601 50 601 75 601C100 601 125 601 150 601C175 601 200 601 225 601C250 601 275 601 300 601C325 601 350 601 375 601C400 601 425 601 450 601C475 601 500 601 525 601C550 601 575 601 600 601C625 601 650 601 675 601C700 601 725 601 750 601C775 601 800 601 825 601C850 601 875 601 887.5 601L900 601L900 509L887.5 481C875 453 850 397 825 370C800 343 775 345 750 367C725 389 700 431 675 442C650 453 625 433 600 418C575 403 550 393 525 399C500 405 475 427 450 430C425 433 400 417 375 416C350 415 325 429 300 441C275 453 250 463 225 467C200 471 175 469 150 461C125 453 100 439 75 427C50 415 25 405 12.5 400L0 395Z" fill="#006c55"></path></svg>